<?xml version="1.0" encoding="UTF-8"?>
<svg xmlns="http://www.w3.org/2000/svg" width="1024" height="1024" viewBox="0 0 1024 1024">
  <defs>
    <linearGradient id="background" x1="144" y1="112" x2="884" y2="924" gradientUnits="userSpaceOnUse">
      <stop offset="0" stop-color="#111936"/>
      <stop offset="0.56" stop-color="#27377E"/>
      <stop offset="1" stop-color="#6A3DA5"/>
    </linearGradient>
    <radialGradient id="glow" cx="0" cy="0" r="1" gradientTransform="translate(742 246) rotate(135) scale(542)" gradientUnits="userSpaceOnUse">
      <stop offset="0" stop-color="#61F5D2" stop-opacity="0.38"/>
      <stop offset="1" stop-color="#61F5D2" stop-opacity="0"/>
    </radialGradient>
    <linearGradient id="databaseBody" x1="512" y1="288" x2="512" y2="788" gradientUnits="userSpaceOnUse">
      <stop offset="0" stop-color="#2CDCC9"/>
      <stop offset="0.48" stop-color="#1D9FC4"/>
      <stop offset="1" stop-color="#1269A8"/>
    </linearGradient>
    <linearGradient id="databaseTop" x1="304" y1="248" x2="726" y2="380" gradientUnits="userSpaceOnUse">
      <stop offset="0" stop-color="#8BFFE6"/>
      <stop offset="0.48" stop-color="#43E7CF"/>
      <stop offset="1" stop-color="#20B6C5"/>
    </linearGradient>
    <linearGradient id="prompt" x1="338" y1="422" x2="687" y2="595" gradientUnits="userSpaceOnUse">
      <stop offset="0" stop-color="#182143"/>
      <stop offset="1" stop-color="#10162F"/>
    </linearGradient>
    <clipPath id="appShape">
      <rect x="56" y="56" width="912" height="912" rx="218"/>
    </clipPath>
  </defs>

  <rect x="68" y="78" width="888" height="888" rx="210" fill="#090D20" opacity="0.3"/>
  <g clip-path="url(#appShape)">
    <rect x="56" y="56" width="912" height="912" rx="218" fill="url(#background)"/>
    <rect x="56" y="56" width="912" height="912" rx="218" fill="url(#glow)"/>
    <circle cx="178" cy="824" r="284" fill="#8B4FD0" opacity="0.14"/>
    <path d="M120 200C318 90 620 91 884 234" fill="none" stroke="#FFFFFF" stroke-width="26" stroke-linecap="round" opacity="0.055"/>

    <ellipse cx="512" cy="750" rx="285" ry="95" fill="#080E26" opacity="0.34"/>

    <path d="M246 326C246 258 365 204 512 204C659 204 778 258 778 326V708C778 776 659 830 512 830C365 830 246 776 246 708V326Z" fill="url(#databaseBody)"/>
    <path d="M246 326C246 394 365 448 512 448C659 448 778 394 778 326" fill="none" stroke="#B8FFF1" stroke-width="18" opacity="0.42"/>
    <path d="M246 514C246 582 365 636 512 636C659 636 778 582 778 514" fill="none" stroke="#AAFFF0" stroke-width="18" opacity="0.34"/>
    <path d="M246 692C246 760 365 814 512 814C659 814 778 760 778 692" fill="none" stroke="#8FF7E8" stroke-width="18" opacity="0.28"/>
    <ellipse cx="512" cy="326" rx="266" ry="122" fill="url(#databaseTop)"/>
    <ellipse cx="512" cy="326" rx="206" ry="82" fill="#163D6E" opacity="0.22"/>
    <path d="M326 297C382 245 488 226 585 240" fill="none" stroke="#FFFFFF" stroke-width="22" stroke-linecap="round" opacity="0.3"/>

    <rect x="300" y="405" width="424" height="214" rx="58" fill="#090E24" opacity="0.25"/>
    <rect x="288" y="391" width="448" height="214" rx="58" fill="url(#prompt)" stroke="#D8FFF8" stroke-width="9" stroke-opacity="0.26"/>
    <circle cx="348" cy="441" r="11" fill="#FF6F91"/>
    <circle cx="382" cy="441" r="11" fill="#FFD36A"/>
    <circle cx="416" cy="441" r="11" fill="#62E6BD"/>
    <path d="M374 482L443 526L374 570" fill="none" stroke="#FFFFFF" stroke-width="34" stroke-linecap="round" stroke-linejoin="round"/>
    <path d="M492 570H632" fill="none" stroke="#69F8D5" stroke-width="34" stroke-linecap="round"/>

    <rect x="65" y="65" width="894" height="894" rx="209" fill="none" stroke="#FFFFFF" stroke-width="18" opacity="0.1"/>
  </g>
</svg>
